<svg width="201" height="171" viewBox="0 0 201 171" fill="none" xmlns="http://www.w3.org/2000/svg">
<path d="M100.562 28.0295C112.054 -3.99748 162.301 -5.07645 183.336 17.1715C198.255 32.9505 202.401 57.8046 196.636 78.3225C184.273 122.342 139.078 150.914 100.563 169.668C62.0494 150.914 16.8554 122.341 4.49237 78.3225C-1.26963 57.8046 2.87636 32.9505 17.7924 17.1715C38.8334 -5.07045 89.0814 -3.99348 100.562 28.0295Z" fill="white" stroke="#141414" stroke-width="2.5" stroke-linecap="round" stroke-linejoin="round"/>
<path d="M100.566 51.6086C102.418 44.9496 112.779 14.3425 146.781 14.3425C189.413 14.3425 225.947 96.3516 100.57 157.334C-24.8136 96.3536 11.7204 14.3425 54.3524 14.3425C88.3554 14.3425 98.7164 44.9496 100.566 51.6086Z" fill="#F2ACBF" stroke="#141414" stroke-width="2.5" stroke-miterlimit="10"/>
<path d="M71.1204 87.5166C80.031 87.5166 87.2544 78.5041 87.2544 67.3866C87.2544 56.2691 80.031 47.2566 71.1204 47.2566C62.2098 47.2566 54.9864 56.2691 54.9864 67.3866C54.9864 78.5041 62.2098 87.5166 71.1204 87.5166Z" fill="white" stroke="#141414" stroke-width="2.5" stroke-linecap="round" stroke-linejoin="round"/>
<path d="M70.7463 72.9056C70.9824 73.942 71.2888 74.961 71.6633 75.9556C74.2423 82.7876 79.8124 87.5166 86.2634 87.5166C95.1744 87.5166 102.397 78.5046 102.397 67.3866C102.397 56.2686 95.1744 47.2566 86.2634 47.2566C79.5804 47.2566 73.8463 52.3266 71.3973 59.5566L80.8234 67.3916L70.7463 72.9056Z" fill="#141414" stroke="#141414" stroke-width="2.5" stroke-linecap="round" stroke-linejoin="round"/>
<path d="M71.1204 87.5166C80.031 87.5166 87.2544 78.5041 87.2544 67.3866C87.2544 56.2691 80.031 47.2566 71.1204 47.2566C62.2098 47.2566 54.9864 56.2691 54.9864 67.3866C54.9864 78.5041 62.2098 87.5166 71.1204 87.5166Z" stroke="#141414" stroke-width="2.5" stroke-linecap="round" stroke-linejoin="round"/>
<path d="M51.4164 51.0876L58.0514 55.6076" stroke="#141414" stroke-width="2.5" stroke-linecap="round" stroke-linejoin="round"/>
<path d="M56.1484 44.8336L61.6694 51.0876" stroke="#141414" stroke-width="2.5" stroke-linecap="round" stroke-linejoin="round"/>
<path d="M62.5714 40.7776L65.9514 47.9616" stroke="#141414" stroke-width="2.5" stroke-linecap="round" stroke-linejoin="round"/>
<path d="M71.1204 38.7776V47.2576" stroke="#141414" stroke-width="2.5" stroke-linecap="round" stroke-linejoin="round"/>
<path d="M143.274 51.3646L110.374 69.1906L143.274 81.4776" stroke="#141414" stroke-width="2.5" stroke-linecap="round" stroke-linejoin="round"/>
<path d="M63.3763 105.092C63.3763 105.092 66.0093 92.3527 77.9833 94.3917" stroke="#141414" stroke-width="2.5" stroke-linecap="round" stroke-linejoin="round"/>
<path d="M133.693 105.092C133.693 105.092 131.06 92.3527 119.086 94.3917" stroke="#141414" stroke-width="2.5" stroke-linecap="round" stroke-linejoin="round"/>
<path d="M128.526 96.8296C128.526 96.8296 119.732 116.802 98.3464 116.814C76.9594 116.802 68.1653 96.8296 68.1653 96.8296" stroke="#141414" stroke-width="2.5" stroke-linecap="round" stroke-linejoin="round"/>
<path d="M98.3464 116.811L107.284 131.353C108.591 133.479 110.649 135.037 113.049 135.72C115.45 136.402 118.019 136.159 120.249 135.038C121.325 134.497 122.281 133.746 123.062 132.83C123.842 131.913 124.431 130.849 124.793 129.701C125.154 128.553 125.282 127.344 125.169 126.145C125.055 124.947 124.702 123.783 124.13 122.724L117.46 110.352C115.007 112.222 112.297 113.73 109.414 114.829C105.854 116.076 102.118 116.745 98.3464 116.811Z" fill="#3DC9D9" stroke="#141414" stroke-width="2.5" stroke-miterlimit="10"/>
<path d="M109.414 114.829L120.249 135.039" stroke="#141414" stroke-width="2.5" stroke-linecap="round" stroke-linejoin="round"/>
</svg>
