<svg width="272" height="272" viewBox="0 0 272 272" fill="none" xmlns="http://www.w3.org/2000/svg">
<path d="M135.906 248.274C197.965 248.274 248.274 197.965 248.274 135.906C248.274 73.8468 197.965 23.538 135.906 23.538C73.847 23.538 23.5381 73.8468 23.5381 135.906C23.5381 197.965 73.847 248.274 135.906 248.274Z" fill="white" stroke="#141414" stroke-width="2.5" stroke-linecap="round" stroke-linejoin="round"/>
<path d="M203.859 203.859C241.388 166.329 241.388 105.482 203.859 67.9529C166.329 30.4235 105.482 30.4235 67.953 67.9529C30.4236 105.482 30.4236 166.329 67.953 203.859C105.482 241.388 166.329 241.388 203.859 203.859Z" fill="#F2CB05" stroke="#141414" stroke-width="2.5" stroke-miterlimit="10"/>
<path d="M101.051 151.939C113.803 151.939 124.14 139.042 124.14 123.132C124.14 107.222 113.803 94.325 101.051 94.325C88.2993 94.325 77.962 107.222 77.962 123.132C77.962 139.042 88.2993 151.939 101.051 151.939Z" fill="white" stroke="#141414" stroke-width="2.5" stroke-linecap="round" stroke-linejoin="round"/>
<path d="M100.516 131.03C100.853 132.513 101.291 133.971 101.828 135.394C105.519 145.172 113.49 151.939 122.728 151.939C135.48 151.939 145.818 139.039 145.818 123.132C145.818 107.225 135.48 94.324 122.728 94.324C113.165 94.324 104.959 101.579 101.454 111.924L114.943 123.137L100.516 131.03Z" fill="#141414" stroke="#141414" stroke-width="2.5" stroke-linecap="round" stroke-linejoin="round"/>
<path d="M101.051 151.939C113.803 151.939 124.14 139.042 124.14 123.132C124.14 107.222 113.803 94.325 101.051 94.325C88.2993 94.325 77.962 107.222 77.962 123.132C77.962 139.042 88.2993 151.939 101.051 151.939Z" stroke="#141414" stroke-width="2.5" stroke-linecap="round" stroke-linejoin="round"/>
<path d="M72.8521 99.807L82.3471 106.275" stroke="#141414" stroke-width="2.5" stroke-linecap="round" stroke-linejoin="round"/>
<path d="M79.625 90.8569L87.526 99.8069" stroke="#141414" stroke-width="2.5" stroke-linecap="round" stroke-linejoin="round"/>
<path d="M88.817 85.051L93.655 95.331" stroke="#141414" stroke-width="2.5" stroke-linecap="round" stroke-linejoin="round"/>
<path d="M101.051 82.189V94.324" stroke="#141414" stroke-width="2.5" stroke-linecap="round" stroke-linejoin="round"/>
<path d="M171.914 151.939C184.666 151.939 195.003 139.042 195.003 123.132C195.003 107.222 184.666 94.325 171.914 94.325C159.162 94.325 148.825 107.222 148.825 123.132C148.825 139.042 159.162 151.939 171.914 151.939Z" fill="white" stroke="#141414" stroke-width="2.5" stroke-linecap="round" stroke-linejoin="round"/>
<path d="M171.038 131.03C171.375 132.513 171.813 133.971 172.35 135.394C176.041 145.172 184.011 151.939 193.25 151.939C206.002 151.939 216.339 139.039 216.339 123.132C216.339 107.225 206.002 94.324 193.25 94.324C183.687 94.324 175.481 101.579 171.976 111.924L185.465 123.137L171.038 131.03Z" fill="#141414" stroke="#141414" stroke-width="2.5" stroke-linecap="round" stroke-linejoin="round"/>
<path d="M171.914 151.939C184.666 151.939 195.003 139.042 195.003 123.132C195.003 107.222 184.666 94.325 171.914 94.325C159.162 94.325 148.825 107.222 148.825 123.132C148.825 139.042 159.162 151.939 171.914 151.939Z" stroke="#141414" stroke-width="2.5" stroke-linecap="round" stroke-linejoin="round"/>
<path d="M200.112 99.807L190.617 106.275" stroke="#141414" stroke-width="2.5" stroke-linecap="round" stroke-linejoin="round"/>
<path d="M193.34 90.8569L185.439 99.8069" stroke="#141414" stroke-width="2.5" stroke-linecap="round" stroke-linejoin="round"/>
<path d="M184.148 85.051L179.31 95.331" stroke="#141414" stroke-width="2.5" stroke-linecap="round" stroke-linejoin="round"/>
<path d="M171.914 82.189V94.324" stroke="#141414" stroke-width="2.5" stroke-linecap="round" stroke-linejoin="round"/>
<path d="M87.531 177.09C87.531 177.09 91.298 158.859 108.431 161.776" stroke="#141414" stroke-width="2.5" stroke-linecap="round" stroke-linejoin="round"/>
<path d="M188.157 177.09C188.157 177.09 184.389 158.859 167.257 161.776" stroke="#141414" stroke-width="2.5" stroke-linecap="round" stroke-linejoin="round"/>
<path d="M180.766 165.263C180.766 165.263 168.181 193.843 137.575 193.863C106.968 193.845 94.3831 165.263 94.3831 165.263" stroke="#141414" stroke-width="2.5" stroke-linecap="round" stroke-linejoin="round"/>
<path d="M82.348 159.983C82.348 162.385 81.6357 164.733 80.3012 166.73C78.9667 168.728 77.0699 170.284 74.8507 171.204C72.6315 172.123 70.1895 172.363 67.8336 171.895C65.4777 171.426 63.3137 170.269 61.6152 168.571C59.9167 166.872 58.76 164.708 58.2913 162.352C57.8227 159.996 58.0633 157.555 58.9825 155.335C59.9017 153.116 61.4584 151.219 63.4556 149.885C65.4529 148.55 67.8009 147.838 70.203 147.838C73.4239 147.838 76.5129 149.118 78.7905 151.395C81.0681 153.673 82.3477 156.762 82.348 159.983Z" fill="#F2ACBF" stroke="#141414" stroke-width="2.5" stroke-miterlimit="10"/>
<path d="M217.629 159.983C217.629 162.385 216.917 164.733 215.582 166.729C214.248 168.726 212.351 170.283 210.132 171.202C207.913 172.121 205.471 172.361 203.116 171.893C200.76 171.424 198.596 170.267 196.898 168.569C195.2 166.871 194.043 164.707 193.574 162.351C193.106 159.996 193.346 157.554 194.265 155.335C195.184 153.116 196.741 151.22 198.738 149.885C200.734 148.551 203.082 147.838 205.484 147.838C208.705 147.838 211.794 149.118 214.072 151.395C216.35 153.673 217.629 156.762 217.629 159.983Z" fill="#F2ACBF" stroke="#141414" stroke-width="2.5" stroke-miterlimit="10"/>
</svg>
