<svg width="268" height="256" viewBox="0 0 268 256" fill="none" xmlns="http://www.w3.org/2000/svg">
<path d="M62.1433 228.347C51.3183 229.145 41.7773 219.386 40.8305 206.549C39.8838 193.712 47.893 182.66 58.7173 181.862L74.4862 180.7L77.912 227.183L62.1433 228.347Z" fill="#F2ACBF" stroke="#141414" stroke-width="2.5" stroke-miterlimit="10"/>
<path d="M66.9865 227.99C56.1622 228.788 46.6204 219.028 45.6745 206.192C44.7286 193.356 52.7367 182.302 63.561 181.505" stroke="#141414" stroke-width="2.5" stroke-miterlimit="10"/>
<path d="M73.1197 227.539C62.2952 228.336 52.7535 218.577 51.8074 205.74C50.8614 192.903 58.8691 181.851 69.6934 181.053" stroke="#141414" stroke-width="2.5" stroke-miterlimit="10"/>
<path d="M95.7988 202.498C94.8528 189.661 85.3109 179.902 74.4866 180.699C63.6622 181.497 55.6542 192.55 56.6003 205.387C57.5464 218.223 67.0882 227.983 77.9126 227.185C88.737 226.387 96.7449 215.334 95.7988 202.498Z" fill="#F2ACBF" stroke="#141414" stroke-width="2.5" stroke-miterlimit="10"/>
<path d="M83.602 203.397C83.9617 208.245 80.9345 212.42 76.8468 212.723C72.759 213.025 69.1535 209.337 68.7969 204.49C68.4402 199.642 71.4644 195.466 75.5521 195.164C79.6398 194.861 83.2452 198.548 83.602 203.397Z" stroke="#141414" stroke-width="2.5" stroke-miterlimit="10"/>
<path d="M156.638 204.644C146.149 205.418 136.903 195.96 135.986 183.52C135.069 171.081 142.829 160.37 153.319 159.597L168.599 158.471L171.919 203.518L156.638 204.644Z" fill="#F2ACBF" stroke="#141414" stroke-width="2.5" stroke-miterlimit="10"/>
<path d="M161.332 204.297C150.842 205.07 141.596 195.613 140.679 183.174C139.762 170.735 147.522 160.024 158.012 159.251" stroke="#141414" stroke-width="2.5" stroke-miterlimit="10"/>
<path d="M167.274 203.86C156.785 204.633 147.538 195.176 146.622 182.736C145.706 170.297 153.465 159.587 163.954 158.813" stroke="#141414" stroke-width="2.5" stroke-miterlimit="10"/>
<path d="M189.253 179.596C188.336 167.157 179.09 157.7 168.6 158.473C158.111 159.246 150.351 169.956 151.267 182.395C152.184 194.834 161.43 204.292 171.919 203.519C182.409 202.746 190.169 192.035 189.253 179.596Z" fill="#F2ACBF" stroke="#141414" stroke-width="2.5" stroke-miterlimit="10"/>
<path d="M177.426 180.461C177.078 175.764 173.585 172.194 169.623 172.487C165.662 172.781 162.733 176.827 163.082 181.525C163.43 186.223 166.924 189.793 170.885 189.499C174.846 189.206 177.775 185.159 177.426 180.461Z" stroke="#141414" stroke-width="2.49962" stroke-miterlimit="10"/>
<path d="M34.8004 158.014C32.5758 138.806 41.8318 124.599 62.0207 118.483C67.1898 116.858 72.2114 114.796 77.0314 112.321C82.015 109.826 86.382 106.252 90.4103 102.4C104.099 89.3138 114.565 71.8892 115.604 52.9801C116.1 43.9361 114.663 34.0263 119.764 26.5406C125.396 18.2747 136.601 16.441 146.542 15.3332L166.399 13.1226C166.399 13.1226 203.571 7.31406 203.007 47.9138C202.442 88.5135 222.88 94.3509 211.967 120.86C211.967 120.86 200.583 131.783 179.831 137.312C159.08 142.84 133.164 168.34 100.119 166.59C67.0737 164.839 67.6611 171.427 52.8562 168.05C38.0514 164.672 34.8004 158.014 34.8004 158.014Z" fill="#3DC9D9" stroke="#141414" stroke-width="2.5" stroke-miterlimit="10"/>
<path d="M108.653 173.002C106.493 179.008 104.715 160.599 106.44 154.454C107.303 151.372 108.808 148.507 110.856 146.048C112.905 143.589 115.45 141.592 118.326 140.186C123.315 137.832 129 137.499 134.264 135.849C139.527 134.199 144.855 130.476 145.542 125.003C145.786 123.06 145.412 121.098 145.359 119.139C145.312 115.893 146.131 112.692 147.732 109.867C149.332 107.042 151.657 104.695 154.466 103.066C159.524 100.218 165.575 99.9995 171.288 98.9748C177.002 97.9502 183.125 95.5691 185.653 90.3438C188.339 84.7913 186.015 78.2371 186.092 72.0698C186.196 63.9488 190.729 56.2766 197.078 51.2062C203.428 46.1359 211.41 43.4574 219.451 42.2973L212.152 34.4124C204.112 35.5699 196.127 38.2519 189.779 43.3214C183.43 48.3908 178.898 56.0636 178.792 64.1849C178.709 70.3533 181.04 76.9064 178.354 82.4589C175.827 87.6841 169.702 90.0629 163.989 91.0898C158.276 92.1166 152.225 92.3352 147.167 95.1809C144.358 96.8095 142.033 99.1572 140.432 101.982C138.832 104.808 138.013 108.008 138.06 111.255C138.115 113.212 138.487 115.175 138.243 117.118C137.555 122.592 132.227 126.314 126.964 127.964C121.7 129.614 116.015 129.947 111.027 132.302C108.151 133.707 105.606 135.705 103.557 138.164C101.509 140.623 100.004 143.488 99.1413 146.57C97.4695 152.807 98.2618 159.448 101.354 165.117C101.354 165.117 109.222 171.419 108.653 173.002Z" fill="#F2ACBF" stroke="#141414" stroke-width="2.5" stroke-miterlimit="10"/>
<path d="M127.953 189.635C125.792 195.641 124.014 177.233 125.74 171.088C126.603 168.006 128.108 165.141 130.156 162.682C132.205 160.223 134.75 158.225 137.626 156.819C142.614 154.465 148.299 154.132 153.563 152.482C158.826 150.832 164.154 147.11 164.842 141.636C165.085 139.693 164.711 137.73 164.658 135.773C164.612 132.526 165.431 129.325 167.031 126.5C168.632 123.675 170.956 121.327 173.765 119.698C178.824 116.851 184.875 116.633 190.588 115.607C196.301 114.582 202.425 112.202 204.952 106.976C207.639 101.424 205.313 94.8698 205.391 88.7024C205.495 80.5815 210.031 72.9049 216.377 67.8389C222.724 62.7729 230.709 60.09 238.75 58.9299L231.451 51.0449C223.412 52.2023 215.426 54.8845 209.078 59.9538C202.73 65.0232 198.198 72.6961 198.092 80.8181C198.009 86.9858 200.34 93.5388 197.653 99.0914C195.126 104.317 189.002 106.695 183.289 107.722C177.576 108.75 171.525 108.968 166.466 111.813C163.658 113.442 161.333 115.79 159.732 118.615C158.132 121.44 157.313 124.64 157.359 127.887C157.335 130.618 157.161 133.346 156.839 136.058C156.151 141.532 146.001 150.811 140.737 152.461C135.474 154.111 133.121 155.354 128.134 157.709C122.362 160.433 120.169 157.056 118.443 163.202C116.771 169.439 117.564 176.08 120.656 181.749C120.656 181.749 128.52 188.049 127.953 189.635Z" fill="#F2ACBF" stroke="#141414" stroke-width="2.5" stroke-miterlimit="10"/>
<path d="M175.464 13.0629C175.464 13.0629 187.039 14.2332 188.079 22.1853C189.119 30.1373 173.637 28.4754 153.835 33.1781C134.032 37.8807 148.694 59.7769 130.035 87.564C111.375 115.351 82.1285 134.019 66.1752 117.086" stroke="#141414" stroke-width="2.5" stroke-miterlimit="10"/>
<path d="M81.6925 110.231C86.4679 111.319 91.0845 113.013 95.4296 115.273" stroke="#141414" stroke-width="2.5" stroke-miterlimit="10"/>
<path d="M88.2955 104.406L93.3918 105.688C96.9196 106.575 100.547 107.507 103.471 109.67" stroke="#141414" stroke-width="2.5" stroke-miterlimit="10"/>
<path d="M95.5431 97.9092C101.101 99.3128 106.458 101.415 111.486 104.167" stroke="#141414" stroke-width="2.5" stroke-miterlimit="10"/>
<path d="M101.522 90.634C106.588 91.9949 111.447 94.0351 115.966 96.6992" stroke="#141414" stroke-width="2.5" stroke-miterlimit="10"/>
<path d="M105.836 83.6936C111.4 85.1024 116.716 87.3532 121.6 90.3679" stroke="#141414" stroke-width="2.5" stroke-miterlimit="10"/>
<path d="M109.741 76.5845C114.737 78.1365 119.59 80.1138 124.248 82.4947" stroke="#141414" stroke-width="2.5" stroke-miterlimit="10"/>
<path d="M112.168 70.4612C117.254 71.6878 122.224 73.3478 127.026 75.4233" stroke="#141414" stroke-width="2.5" stroke-miterlimit="10"/>
<path d="M81.141 173.126C82.2881 167.597 82.1627 161.894 82.032 156.249C81.9075 150.891 81.7138 145.272 79.0224 140.637C75.9433 135.334 70.1417 132.269 64.4319 130.041C57.1076 127.181 49.1498 125.228 41.3987 126.547" stroke="#141414" stroke-width="2.5" stroke-miterlimit="10"/>
<path d="M34.8004 158.014C32.5758 138.806 41.8318 124.599 62.0207 118.483C67.1898 116.858 72.2114 114.796 77.0314 112.321C82.015 109.826 86.382 106.252 90.4103 102.4C104.099 89.3138 114.566 71.8892 115.604 52.9801C116.1 43.9361 114.663 34.0263 119.764 26.5406C125.396 18.2747 136.601 16.441 146.542 15.3332L166.399 13.1226C166.399 13.1226 203.571 7.31406 203.007 47.9138C202.442 88.5135 222.88 94.3509 211.967 120.86C211.967 120.86 200.583 131.783 179.831 137.312C159.08 142.84 133.164 168.34 100.119 166.59C67.0737 164.839 67.6611 171.427 52.8562 168.049C38.0514 164.672 34.8004 158.014 34.8004 158.014Z" stroke="#141414" stroke-width="2.5" stroke-miterlimit="10"/>
<path d="M138.344 69.8204C139.715 64.4704 139.78 64.0507 140.772 57.069C141.922 49.382 142.641 41.6367 142.927 33.8694C143.007 30.8607 141.342 29.5703 138.453 29.3861C128.786 28.7382 119.077 29.2306 109.525 30.8532C107.992 31.1189 106.197 31.6364 105.718 33.1169C105.548 33.8386 105.573 34.5925 105.79 35.3014C106.994 40.7104 109.273 45.8124 110.958 51.0907C112.644 56.3691 114.803 59.8014 113.552 65.2001L138.344 69.8204Z" fill="#3DC9D9" stroke="#141414" stroke-width="2.5" stroke-miterlimit="10"/>
<path d="M112.892 67.6968C134.71 69.067 160.897 76.4141 179.735 87.5064C183.273 89.5905 187.076 91.9178 191.159 91.4719C191.908 91.4306 192.641 91.2308 193.307 90.8857C193.973 90.5405 194.559 90.0578 195.025 89.4696C195.537 88.6411 195.835 87.6983 195.892 86.7262C196.379 82.1018 194.523 77.4488 191.608 73.8226C188.693 70.1964 184.8 67.4908 180.768 65.1752C170.196 59.1047 158.386 55.4206 146.395 53.2123C134.404 51.0041 122.623 50.4778 110.444 49.9263C111.541 52.8114 112.303 55.8127 112.715 58.8714C113.043 61.8016 113.103 64.7557 112.892 67.6968Z" fill="#F2CB05" stroke="#141414" stroke-width="2.5" stroke-miterlimit="10"/>
<path d="M113.272 62.8135C130.031 64.8332 146.413 67.7433 161.492 73.8486C167.044 76.14 172.432 78.8114 177.617 81.8438C180.517 83.5157 186.724 88.4754 190.388 86.383C190.518 86.2961 190.626 86.1796 190.702 86.043C193.596 81.5347 188.244 76.342 185.19 73.6105C180.262 69.2065 174.684 66.7578 168.661 64.2939C159.562 60.5163 149.988 58.0079 140.206 56.8394C132.236 55.9226 124.229 55.2527 116.223 54.7427C114.785 54.6517 113.347 54.566 111.909 54.5001" stroke="#141414" stroke-width="2.5" stroke-miterlimit="10"/>
<path d="M33.6187 170.458C29.9996 168.918 27.4292 166.206 28.7199 162.491L28.7455 162.419C29.1417 161.209 29.8341 160.117 30.7597 159.244C31.6853 158.37 32.8147 157.741 34.0452 157.415C34.0452 157.415 54.8224 164.909 88.6026 162.304C122.383 159.699 145.233 144.483 163.02 137.789C180.808 131.095 211.97 120.857 211.97 120.857C211.97 120.857 222.267 128.718 222.125 144.322C221.971 161.21 214.923 171.454 214.923 171.454L206.743 165.267C206.743 165.267 205.561 148.922 197.12 150.477C188.209 152.119 192.597 167.016 192.597 167.016C192.597 167.016 182.915 173.145 178.837 176.678C178.89 176.633 173.49 168.972 173.019 168.438C170.502 165.577 166.274 165.133 162.696 165.177C158.146 165.346 153.611 165.792 149.116 166.511C143.565 167.248 138.073 168.382 132.684 169.904C126.85 171.568 119.703 174.168 116.363 179.591C114.712 182.271 114.245 183.538 114.007 185.978L103.475 191.618C103.475 191.618 105.008 176.95 95.4194 177.093C85.8306 177.235 91.4366 191.774 91.4366 191.774L83.7967 200.014L64.89 181.58L62.0975 188.06L39.5497 182.616L39.6542 173.026L33.6187 170.458Z" fill="#F2CB05" stroke="#141414" stroke-width="2.5" stroke-miterlimit="10"/>
<path d="M39.6539 173.024C39.6539 173.024 69.7836 180.781 114.735 168.879C154.766 158.279 206.024 137.114 220.119 133.458" stroke="#141414" stroke-width="2.5" stroke-miterlimit="10"/>
<path d="M62.0972 188.058L60.881 204.99C60.8245 205.797 60.5894 206.582 60.1925 207.287C59.7957 207.992 59.2471 208.6 58.5865 209.067C57.9258 209.534 57.1696 209.849 56.3725 209.988C55.5754 210.127 54.7574 210.087 53.9776 209.871C41.9975 206.502 34.5599 202.962 30.5932 200.719C30.1254 200.452 29.7211 200.086 29.4082 199.648C29.0954 199.209 28.8813 198.708 28.7809 198.179C28.6805 197.649 28.6961 197.105 28.8266 196.582C28.957 196.059 29.1993 195.571 29.5367 195.151L39.5493 182.614C39.5493 182.614 56.8605 186.726 62.0972 188.058Z" fill="#F2CB05" stroke="#141414" stroke-width="2.5" stroke-miterlimit="10"/>
<path d="M101.324 239.903C89.121 240.801 78.364 229.801 77.297 215.327C76.2299 200.852 85.2596 188.396 97.4622 187.495L115.24 186.185L119.104 238.592L101.324 239.903Z" fill="#F2ACBF" stroke="#141414" stroke-width="2.5" stroke-miterlimit="10"/>
<path d="M106.785 239.498C94.5813 240.397 83.8243 229.396 82.7572 214.922C81.6901 200.447 90.7198 187.991 102.922 187.09" stroke="#141414" stroke-width="2.5" stroke-miterlimit="10"/>
<path d="M113.698 238.988C101.494 239.887 90.7372 228.886 89.671 214.412C88.6048 199.939 97.6329 187.482 109.836 186.58" stroke="#141414" stroke-width="2.5" stroke-miterlimit="10"/>
<path d="M139.248 210.743C138.175 196.274 127.414 185.278 115.213 186.182C103.012 187.087 93.9911 199.55 95.0638 214.019C96.1366 228.489 106.897 239.485 119.098 238.58C131.299 237.676 140.32 225.213 139.248 210.743Z" fill="#F2ACBF" stroke="#141414" stroke-width="2.49962" stroke-miterlimit="10"/>
<path d="M125.517 211.771C125.92 217.237 122.513 221.943 117.901 222.284C113.289 222.624 109.228 218.469 108.825 213.001C108.422 207.533 111.829 202.828 116.442 202.489C121.054 202.149 125.115 206.305 125.517 211.771Z" stroke="#141414" stroke-width="2.5" stroke-miterlimit="10"/>
<path d="M100.602 212.925L103.936 212.678" stroke="#141414" stroke-width="2.5" stroke-miterlimit="10"/>
<path d="M104.467 198.677C105.339 199.269 106.142 199.957 106.86 200.728" stroke="#141414" stroke-width="2.5" stroke-miterlimit="10"/>
<path d="M134.13 210.453L130.797 210.699" stroke="#141414" stroke-width="2.5" stroke-miterlimit="10"/>
<path d="M128.219 196.927C127.443 197.64 126.75 198.438 126.152 199.306" stroke="#141414" stroke-width="2.5" stroke-miterlimit="10"/>
<path d="M115.826 192.142L116.138 196.364" stroke="#141414" stroke-width="2.5" stroke-miterlimit="10"/>
<path d="M106.57 227.225C107.346 226.511 108.04 225.713 108.638 224.845" stroke="#141414" stroke-width="2.5" stroke-miterlimit="10"/>
<path d="M130.323 225.474C129.451 224.882 128.648 224.194 127.93 223.423" stroke="#141414" stroke-width="2.5" stroke-miterlimit="10"/>
<path d="M118.766 232.024L118.455 227.802" stroke="#141414" stroke-width="2.5" stroke-miterlimit="10"/>
<path d="M188.482 217.133C176.278 218.032 165.521 207.032 164.455 192.558C163.388 178.084 172.416 165.627 184.62 164.726L202.398 163.415L206.261 215.823L188.482 217.133Z" fill="#F2ACBF" stroke="#141414" stroke-width="2.5" stroke-miterlimit="10"/>
<path d="M193.942 216.729C181.739 217.628 170.982 206.627 169.915 192.153C168.848 177.68 177.877 165.223 190.08 164.321" stroke="#141414" stroke-width="2.5" stroke-miterlimit="10"/>
<path d="M200.856 216.219C188.652 217.119 177.895 206.118 176.828 191.644C175.761 177.17 184.79 164.713 196.993 163.812" stroke="#141414" stroke-width="2.5" stroke-miterlimit="10"/>
<path d="M226.404 187.974C225.332 173.505 214.571 162.508 202.37 163.413C190.169 164.317 181.148 176.781 182.221 191.25C183.294 205.719 194.054 216.716 206.255 215.811C218.456 214.907 227.477 202.443 226.404 187.974Z" fill="#F2ACBF" stroke="#141414" stroke-width="2.49962" stroke-miterlimit="10"/>
<path d="M212.674 189.002C213.077 194.468 209.67 199.174 205.058 199.515C200.445 199.855 196.385 195.7 195.982 190.232C195.579 184.764 198.987 180.059 203.599 179.719C208.211 179.38 212.272 183.536 212.674 189.002Z" stroke="#141414" stroke-width="2.5" stroke-miterlimit="10"/>
<path d="M187.76 190.156L191.093 189.91" stroke="#141414" stroke-width="2.5" stroke-miterlimit="10"/>
<path d="M191.624 175.908C192.496 176.5 193.299 177.188 194.017 177.959" stroke="#141414" stroke-width="2.5" stroke-miterlimit="10"/>
<path d="M221.288 187.683L217.955 187.928" stroke="#141414" stroke-width="2.5" stroke-miterlimit="10"/>
<path d="M215.376 174.158C214.6 174.871 213.907 175.67 213.309 176.538" stroke="#141414" stroke-width="2.5" stroke-miterlimit="10"/>
<path d="M202.983 169.374C203.087 170.781 203.19 172.189 203.293 173.596" stroke="#141414" stroke-width="2.5" stroke-miterlimit="10"/>
<path d="M193.728 204.455C194.504 203.741 195.197 202.943 195.795 202.076" stroke="#141414" stroke-width="2.5" stroke-miterlimit="10"/>
<path d="M217.48 202.705C216.608 202.113 215.806 201.425 215.087 200.654" stroke="#141414" stroke-width="2.5" stroke-miterlimit="10"/>
<path d="M205.923 209.254L205.612 205.032" stroke="#141414" stroke-width="2.5" stroke-miterlimit="10"/>
</svg>
